<?xml version="1.0" encoding="UTF-8"?>
<!DOCTYPE svg PUBLIC "-//W3C//DTD SVG 1.1//EN" "http://www.w3.org/Graphics/SVG/1.1/DTD/svg11.dtd">
<svg version="1.2" width="73.03mm" height="26.72mm" viewBox="0 0 7303 2672" preserveAspectRatio="xMidYMid" fill-rule="evenodd" stroke-width="28.222" stroke-linejoin="round" xmlns="http://www.w3.org/2000/svg" xmlns:ooo="http://xml.openoffice.org/svg/export" xmlns:xlink="http://www.w3.org/1999/xlink" xmlns:presentation="http://sun.com/xmlns/staroffice/presentation" xmlns:smil="http://www.w3.org/2001/SMIL20/" xmlns:anim="urn:oasis:names:tc:opendocument:xmlns:animation:1.0" xmlns:svg="urn:oasis:names:tc:opendocument:xmlns:svg-compatible:1.0" xml:space="preserve">
 <defs class="ClipPathGroup">
  <clipPath id="presentation_clip_path" clipPathUnits="userSpaceOnUse">
   <rect x="0" y="0" width="7303" height="2672"/>
  </clipPath>
  <clipPath id="presentation_clip_path_shrink" clipPathUnits="userSpaceOnUse">
   <rect x="7" y="2" width="7289" height="2667"/>
  </clipPath>
 </defs>
 <defs class="TextShapeIndex">
  <g ooo:slide="id1" ooo:id-list="id3 id4"/>
 </defs>
 <defs class="EmbeddedBulletChars">
  <g id="bullet-char-template-57356" transform="scale(0.00048828125,-0.00048828125)">
   <path d="M 580,1141 L 1163,571 580,0 -4,571 580,1141 Z"/>
  </g>
  <g id="bullet-char-template-57354" transform="scale(0.00048828125,-0.00048828125)">
   <path d="M 8,1128 L 1137,1128 1137,0 8,0 8,1128 Z"/>
  </g>
  <g id="bullet-char-template-10146" transform="scale(0.00048828125,-0.00048828125)">
   <path d="M 174,0 L 602,739 174,1481 1456,739 174,0 Z M 1358,739 L 309,1346 659,739 1358,739 Z"/>
  </g>
  <g id="bullet-char-template-10132" transform="scale(0.00048828125,-0.00048828125)">
   <path d="M 2015,739 L 1276,0 717,0 1260,543 174,543 174,936 1260,936 717,1481 1274,1481 2015,739 Z"/>
  </g>
  <g id="bullet-char-template-10007" transform="scale(0.00048828125,-0.00048828125)">
   <path d="M 0,-2 C -7,14 -16,27 -25,37 L 356,567 C 262,823 215,952 215,954 215,979 228,992 255,992 264,992 276,990 289,987 310,991 331,999 354,1012 L 381,999 492,748 772,1049 836,1024 860,1049 C 881,1039 901,1025 922,1006 886,937 835,863 770,784 769,783 710,716 594,584 L 774,223 C 774,196 753,168 711,139 L 727,119 C 717,90 699,76 672,76 641,76 570,178 457,381 L 164,-76 C 142,-110 111,-127 72,-127 30,-127 9,-110 8,-76 1,-67 -2,-52 -2,-32 -2,-23 -1,-13 0,-2 Z"/>
  </g>
  <g id="bullet-char-template-10004" transform="scale(0.00048828125,-0.00048828125)">
   <path d="M 285,-33 C 182,-33 111,30 74,156 52,228 41,333 41,471 41,549 55,616 82,672 116,743 169,778 240,778 293,778 328,747 346,684 L 369,508 C 377,444 397,411 428,410 L 1163,1116 C 1174,1127 1196,1133 1229,1133 1271,1133 1292,1118 1292,1087 L 1292,965 C 1292,929 1282,901 1262,881 L 442,47 C 390,-6 338,-33 285,-33 Z"/>
  </g>
  <g id="bullet-char-template-9679" transform="scale(0.00048828125,-0.00048828125)">
   <path d="M 813,0 C 632,0 489,54 383,161 276,268 223,411 223,592 223,773 276,916 383,1023 489,1130 632,1184 813,1184 992,1184 1136,1130 1245,1023 1353,916 1407,772 1407,592 1407,412 1353,268 1245,161 1136,54 992,0 813,0 Z"/>
  </g>
  <g id="bullet-char-template-8226" transform="scale(0.00048828125,-0.00048828125)">
   <path d="M 346,457 C 273,457 209,483 155,535 101,586 74,649 74,723 74,796 101,859 155,911 209,963 273,989 346,989 419,989 480,963 531,910 582,859 608,796 608,723 608,648 583,586 532,535 482,483 420,457 346,457 Z"/>
  </g>
  <g id="bullet-char-template-8211" transform="scale(0.00048828125,-0.00048828125)">
   <path d="M -4,459 L 1135,459 1135,606 -4,606 -4,459 Z"/>
  </g>
  <g id="bullet-char-template-61548" transform="scale(0.00048828125,-0.00048828125)">
   <path d="M 173,740 C 173,903 231,1043 346,1159 462,1274 601,1332 765,1332 928,1332 1067,1274 1183,1159 1299,1043 1357,903 1357,740 1357,577 1299,437 1183,322 1067,206 928,148 765,148 601,148 462,206 346,322 231,437 173,577 173,740 Z"/>
  </g>
 </defs>
 <g>
  <g id="id2" class="Master_Slide">
   <g id="bg-id2" class="Background"/>
   <g id="bo-id2" class="BackgroundObjects"/>
  </g>
 </g>
 <g class="SlideGroup">
  <g>
   <g id="container-id1">
    <g id="id1" class="Slide" clip-path="url(#presentation_clip_path)">
     <g class="Page">
      <g class="com.sun.star.drawing.CustomShape">
       <g id="id3">
        <rect class="BoundingBox" stroke="none" fill="none" x="-2" y="-2" width="7307" height="2675"/>
        <path fill="rgb(255,255,255)" stroke="none" d="M 444,-1 L 444,-1 C 366,-1 289,20 222,59 154,98 98,154 59,222 20,289 -1,366 -1,444 L -1,2225 -1,2226 C -1,2304 20,2381 59,2448 98,2516 154,2572 222,2611 289,2650 366,2671 444,2671 L 6857,2671 6858,2671 C 6936,2671 7013,2650 7080,2611 7148,2572 7204,2516 7243,2448 7282,2381 7303,2304 7303,2226 L 7302,444 7303,444 7303,444 C 7303,366 7282,289 7243,222 7204,154 7148,98 7080,59 7013,20 6936,-1 6858,-1 L 444,-1 Z"/>
        <path fill="none" stroke="rgb(255,255,255)" d="M 444,-1 L 444,-1 C 366,-1 289,20 222,59 154,98 98,154 59,222 20,289 -1,366 -1,444 L -1,2225 -1,2226 C -1,2304 20,2381 59,2448 98,2516 154,2572 222,2611 289,2650 366,2671 444,2671 L 6857,2671 6858,2671 C 6936,2671 7013,2650 7080,2611 7148,2572 7204,2516 7243,2448 7282,2381 7303,2304 7303,2226 L 7302,444 7303,444 7303,444 C 7303,366 7282,289 7243,222 7204,154 7148,98 7080,59 7013,20 6936,-1 6858,-1 L 444,-1 Z"/>
       </g>
      </g>
      <g class="Graphic">
       <g id="id4">
        <rect class="BoundingBox" stroke="none" fill="none" x="0" y="0" width="7303" height="2672"/>
        <path fill="rgb(17,11,9)" stroke="none" d="M 2203,2125 L 1730,1330 2203,534 2431,1330 2203,2125 Z M 1151,2047 L 556,1458 1502,1458 1975,2253 1151,2047 Z M 1151,610 L 1973,404 1500,1199 554,1199 1151,610 Z M 2358,13 L 1284,292 1124,566 801,564 13,1330 801,2096 1124,2093 1284,2367 2358,2648 2647,1603 2484,1332 2647,1060 2358,13 Z M 4485,959 L 4480,959 4480,816 4228,816 4228,1868 4485,1868 4485,1271 C 4485,1128 4575,1029 4699,1029 4815,1029 4902,1099 4902,1223 L 4902,1870 5159,1870 5159,1182 C 5162,951 5016,787 4798,787 4655,787 4558,847 4485,959 Z M 3838,1424 C 3838,1565 3758,1662 3627,1662 3508,1662 3433,1594 3433,1470 L 3433,816 3176,816 3176,1519 C 3176,1749 3307,1899 3542,1899 3690,1899 3772,1843 3843,1747 L 3850,1747 3850,1870 4097,1870 4097,816 3840,816 3840,1424 3838,1424 Z M 5298,816 L 5555,816 5555,1868 5298,1868 5298,816 Z M 5298,488 L 5555,488 5555,699 5298,699 5298,488 Z M 7012,816 L 6860,1291 C 6826,1388 6799,1521 6799,1521 L 6792,1521 C 6792,1521 6758,1388 6724,1291 L 6552,816 6275,816 6559,1565 C 6619,1725 6639,1793 6639,1851 6639,1938 6593,1994 6484,1994 L 6384,1994 6384,2214 6549,2214 C 6762,2214 6838,2130 6918,1897 L 7289,818 7012,818 7012,816 Z M 6035,1560 L 6035,1002 6200,1002 6200,818 6035,818 6035,488 5778,488 5778,816 5632,816 5632,1000 5778,1000 5778,1618 C 5778,1817 5928,1870 6064,1870 6176,1870 6205,1865 6205,1865 L 6205,1662 6139,1662 C 6079,1664 6035,1637 6035,1560 Z"/>
       </g>
      </g>
     </g>
    </g>
   </g>
  </g>
 </g>
</svg>