<?xml version="1.0" encoding="UTF-8"?>
<!DOCTYPE svg PUBLIC "-//W3C//DTD SVG 1.1//EN" "http://www.w3.org/Graphics/SVG/1.1/DTD/svg11.dtd">
<svg version="1.2" width="170.08mm" height="138.91mm" viewBox="0 0 17008 13891" preserveAspectRatio="xMidYMid" fill-rule="evenodd" stroke-width="28.222" stroke-linejoin="round" xmlns="http://www.w3.org/2000/svg" xmlns:ooo="http://xml.openoffice.org/svg/export" xmlns:xlink="http://www.w3.org/1999/xlink" xmlns:presentation="http://sun.com/xmlns/staroffice/presentation" xmlns:smil="http://www.w3.org/2001/SMIL20/" xmlns:anim="urn:oasis:names:tc:opendocument:xmlns:animation:1.0" xmlns:svg="urn:oasis:names:tc:opendocument:xmlns:svg-compatible:1.0" xml:space="preserve">
 <defs class="ClipPathGroup">
  <clipPath id="presentation_clip_path" clipPathUnits="userSpaceOnUse">
   <rect x="0" y="0" width="17008" height="13891"/>
  </clipPath>
  <clipPath id="presentation_clip_path_shrink" clipPathUnits="userSpaceOnUse">
   <rect x="17" y="13" width="16974" height="13864"/>
  </clipPath>
 </defs>
 <defs class="TextShapeIndex">
  <g ooo:slide="id1" ooo:id-list="id3 id4"/>
 </defs>
 <defs class="EmbeddedBulletChars">
  <g id="bullet-char-template-57356" transform="scale(0.00048828125,-0.00048828125)">
   <path d="M 580,1141 L 1163,571 580,0 -4,571 580,1141 Z"/>
  </g>
  <g id="bullet-char-template-57354" transform="scale(0.00048828125,-0.00048828125)">
   <path d="M 8,1128 L 1137,1128 1137,0 8,0 8,1128 Z"/>
  </g>
  <g id="bullet-char-template-10146" transform="scale(0.00048828125,-0.00048828125)">
   <path d="M 174,0 L 602,739 174,1481 1456,739 174,0 Z M 1358,739 L 309,1346 659,739 1358,739 Z"/>
  </g>
  <g id="bullet-char-template-10132" transform="scale(0.00048828125,-0.00048828125)">
   <path d="M 2015,739 L 1276,0 717,0 1260,543 174,543 174,936 1260,936 717,1481 1274,1481 2015,739 Z"/>
  </g>
  <g id="bullet-char-template-10007" transform="scale(0.00048828125,-0.00048828125)">
   <path d="M 0,-2 C -7,14 -16,27 -25,37 L 356,567 C 262,823 215,952 215,954 215,979 228,992 255,992 264,992 276,990 289,987 310,991 331,999 354,1012 L 381,999 492,748 772,1049 836,1024 860,1049 C 881,1039 901,1025 922,1006 886,937 835,863 770,784 769,783 710,716 594,584 L 774,223 C 774,196 753,168 711,139 L 727,119 C 717,90 699,76 672,76 641,76 570,178 457,381 L 164,-76 C 142,-110 111,-127 72,-127 30,-127 9,-110 8,-76 1,-67 -2,-52 -2,-32 -2,-23 -1,-13 0,-2 Z"/>
  </g>
  <g id="bullet-char-template-10004" transform="scale(0.00048828125,-0.00048828125)">
   <path d="M 285,-33 C 182,-33 111,30 74,156 52,228 41,333 41,471 41,549 55,616 82,672 116,743 169,778 240,778 293,778 328,747 346,684 L 369,508 C 377,444 397,411 428,410 L 1163,1116 C 1174,1127 1196,1133 1229,1133 1271,1133 1292,1118 1292,1087 L 1292,965 C 1292,929 1282,901 1262,881 L 442,47 C 390,-6 338,-33 285,-33 Z"/>
  </g>
  <g id="bullet-char-template-9679" transform="scale(0.00048828125,-0.00048828125)">
   <path d="M 813,0 C 632,0 489,54 383,161 276,268 223,411 223,592 223,773 276,916 383,1023 489,1130 632,1184 813,1184 992,1184 1136,1130 1245,1023 1353,916 1407,772 1407,592 1407,412 1353,268 1245,161 1136,54 992,0 813,0 Z"/>
  </g>
  <g id="bullet-char-template-8226" transform="scale(0.00048828125,-0.00048828125)">
   <path d="M 346,457 C 273,457 209,483 155,535 101,586 74,649 74,723 74,796 101,859 155,911 209,963 273,989 346,989 419,989 480,963 531,910 582,859 608,796 608,723 608,648 583,586 532,535 482,483 420,457 346,457 Z"/>
  </g>
  <g id="bullet-char-template-8211" transform="scale(0.00048828125,-0.00048828125)">
   <path d="M -4,459 L 1135,459 1135,606 -4,606 -4,459 Z"/>
  </g>
  <g id="bullet-char-template-61548" transform="scale(0.00048828125,-0.00048828125)">
   <path d="M 173,740 C 173,903 231,1043 346,1159 462,1274 601,1332 765,1332 928,1332 1067,1274 1183,1159 1299,1043 1357,903 1357,740 1357,577 1299,437 1183,322 1067,206 928,148 765,148 601,148 462,206 346,322 231,437 173,577 173,740 Z"/>
  </g>
 </defs>
 <g>
  <g id="id2" class="Master_Slide">
   <g id="bg-id2" class="Background"/>
   <g id="bo-id2" class="BackgroundObjects"/>
  </g>
 </g>
 <g class="SlideGroup">
  <g>
   <g id="container-id1">
    <g id="id1" class="Slide" clip-path="url(#presentation_clip_path)">
     <g class="Page">
      <g class="com.sun.star.drawing.CustomShape">
       <g id="id3">
        <rect class="BoundingBox" stroke="none" fill="none" x="-1" y="-2" width="17012" height="13895"/>
        <path fill="rgb(255,255,255)" stroke="none" d="M 2315,-1 L 2315,-1 C 1909,-1 1510,106 1158,309 806,512 513,805 310,1157 107,1509 0,1908 0,2314 L 0,11575 0,11576 C 0,11982 107,12381 310,12733 513,13085 806,13378 1158,13581 1510,13784 1909,13891 2315,13891 L 14693,13891 14694,13891 C 15100,13891 15499,13784 15851,13581 16203,13378 16496,13085 16699,12733 16902,12381 17009,11982 17009,11576 L 17009,2314 17009,2314 17009,2314 C 17009,1908 16902,1509 16699,1157 16496,805 16203,512 15851,309 15499,106 15100,-1 14694,-1 L 2315,-1 Z"/>
        <path fill="none" stroke="rgb(255,255,255)" d="M 2315,-1 L 2315,-1 C 1909,-1 1510,106 1158,309 806,512 513,805 310,1157 107,1509 0,1908 0,2314 L 0,11575 0,11576 C 0,11982 107,12381 310,12733 513,13085 806,13378 1158,13581 1510,13784 1909,13891 2315,13891 L 14693,13891 14694,13891 C 15100,13891 15499,13784 15851,13581 16203,13378 16496,13085 16699,12733 16902,12381 17009,11982 17009,11576 L 17009,2314 17009,2314 17009,2314 C 17009,1908 16902,1509 16699,1157 16496,805 16203,512 15851,309 15499,106 15100,-1 14694,-1 L 2315,-1 Z"/>
       </g>
      </g>
      <g class="Graphic">
       <title>Unreal Engine logo
       </title>
       <g id="id4">
        <rect class="BoundingBox" stroke="none" fill="none" x="0" y="0" width="17008" height="13891"/>
        <defs>
         <clipPath id="clip_path_1" clipPathUnits="userSpaceOnUse">
          <path d="M 0,0 L 17007,0 17007,13890 0,13890 0,0 Z"/>
         </clipPath>
        </defs>
        <g clip-path="url(#clip_path_1)">
         <path fill="rgb(0,0,0)" stroke="none" d="M 5345,13874 L 4016,13874 4016,12654 5324,12654 5324,12924 4371,12924 4371,13132 5273,13132 5273,13387 4372,13387 4372,13597 5345,13597 5345,13874 5345,13874 Z "/>
         <path fill="rgb(0,0,0)" stroke="none" d="M 12991,13874 L 11683,13874 11683,12674 12970,12674 12970,12938 12033,12938 12033,13142 12921,13142 12921,13393 12033,13393 12033,13600 12991,13600 12991,13873 12991,13874 Z "/>
         <path fill="rgb(0,0,0)" stroke="none" d="M 7147,13874 L 6609,13874 5901,12962 5894,12962 5894,13874 5542,13874 5542,12654 6089,12654 6788,13567 6795,13567 6795,12654 7148,12654 7148,13874 7147,13874 Z "/>
         <path fill="rgb(0,0,0)" stroke="none" d="M 11408,13874 L 10870,13874 10162,12962 10155,12962 10155,13874 9802,13874 9802,12654 10348,12654 11048,13567 11054,13567 11054,12654 11408,12654 11408,13874 11408,13874 Z "/>
         <path fill="rgb(0,0,0)" stroke="none" d="M 8186,13890 C 8073,13890 7976,13887 7895,13882 L 7895,13882 C 7824,13878 7754,13867 7685,13850 L 7685,13850 C 7649,13841 7615,13827 7582,13809 7570,13801 7558,13794 7546,13785 L 7546,13785 C 7518,13763 7495,13736 7477,13706 7472,13696 7467,13687 7462,13676 L 7462,13676 C 7440,13625 7426,13570 7421,13514 L 7421,13514 C 7414,13445 7411,13375 7411,13304 7411,13299 7411,13294 7411,13289 L 7411,13253 7411,13253 C 7411,13248 7411,13243 7411,13239 7411,13168 7414,13097 7421,13026 L 7421,13026 C 7427,12970 7440,12915 7462,12863 L 7462,12863 C 7466,12854 7471,12844 7476,12835 7494,12804 7518,12777 7546,12755 L 7546,12755 C 7557,12747 7568,12740 7580,12733 7613,12714 7649,12700 7686,12691 L 7686,12691 C 7754,12674 7824,12664 7894,12660 7976,12655 8073,12652 8185,12652 L 8238,12652 C 8332,12652 8414,12654 8485,12658 L 8485,12658 C 8546,12661 8607,12669 8667,12680 L 8667,12680 C 8711,12689 8753,12703 8792,12724 L 8792,12724 C 8795,12726 8797,12727 8799,12728 8828,12745 8853,12768 8872,12795 L 8872,12795 C 8874,12799 8877,12803 8879,12807 8895,12835 8906,12866 8912,12898 L 8912,12898 C 8919,12941 8923,12985 8923,13029 8923,13032 8923,13035 8923,13038 L 8923,13085 8579,13085 8579,13070 8579,13070 C 8579,13068 8579,13067 8579,13065 8579,13043 8575,13021 8566,13000 L 8566,13000 C 8565,12999 8565,12997 8564,12996 8555,12982 8543,12970 8529,12961 8525,12959 8520,12957 8515,12955 L 8515,12955 C 8481,12942 8446,12934 8410,12931 8364,12927 8304,12924 8230,12924 L 8200,12924 C 8132,12924 8074,12925 8026,12928 L 8026,12928 C 7986,12929 7946,12934 7907,12943 L 7907,12943 C 7887,12947 7867,12954 7849,12965 7843,12968 7837,12972 7832,12976 L 7832,12976 C 7819,12986 7808,12999 7800,13013 7796,13020 7793,13027 7790,13035 L 7790,13035 C 7780,13065 7774,13096 7772,13128 7770,13165 7769,13209 7769,13260 L 7769,13282 C 7769,13332 7770,13375 7772,13411 L 7772,13411 C 7774,13442 7780,13473 7790,13502 L 7790,13502 C 7793,13510 7796,13517 7800,13524 7808,13538 7819,13551 7832,13561 L 7832,13561 C 7837,13565 7843,13568 7849,13572 7867,13582 7887,13590 7907,13594 L 7907,13594 C 7946,13603 7986,13608 8026,13609 8074,13612 8132,13613 8200,13613 L 8230,13613 C 8285,13613 8332,13613 8372,13610 8411,13607 8445,13605 8472,13600 L 8472,13600 C 8495,13597 8517,13591 8537,13582 L 8537,13582 C 8541,13581 8544,13579 8547,13577 8558,13571 8567,13563 8575,13552 L 8575,13552 C 8577,13549 8579,13546 8581,13543 8587,13533 8591,13522 8593,13511 L 8593,13511 C 8596,13493 8597,13475 8597,13457 8597,13456 8597,13455 8597,13455 L 8597,13421 8129,13421 8129,13185 8937,13185 8937,13456 8937,13456 C 8937,13460 8937,13463 8937,13467 8937,13515 8933,13563 8925,13611 L 8925,13611 C 8919,13650 8906,13688 8886,13723 8885,13724 8885,13724 8884,13725 L 8884,13725 C 8864,13757 8837,13785 8805,13805 L 8805,13805 C 8803,13806 8801,13807 8800,13808 8761,13830 8720,13846 8677,13855 L 8677,13855 C 8616,13869 8554,13878 8492,13882 8420,13887 8336,13889 8241,13889 L 8186,13890 Z "/>
         <path fill="rgb(0,0,0)" stroke="none" d="M 9543,13877 L 9185,13877 9185,12666 9543,12666 9543,13877 9543,13877 Z "/>
         <path fill="rgb(0,0,0)" stroke="none" d="M 1275,12015 C 1103,12015 951,12011 821,12001 L 821,12001 C 708,11995 595,11979 484,11954 L 484,11954 C 402,11936 324,11906 252,11864 251,11864 250,11863 249,11863 L 249,11863 C 189,11827 139,11778 101,11719 L 101,11719 C 98,11714 95,11709 91,11703 58,11645 34,11580 23,11513 L 23,11513 C 8,11427 0,11340 0,11253 0,11247 0,11241 0,11234 L 0,9859 627,9859 627,11031 C 627,11104 630,11166 635,11218 L 635,11218 C 638,11263 649,11308 666,11350 L 666,11350 C 669,11359 674,11368 679,11377 693,11401 711,11422 733,11439 L 733,11439 C 742,11445 751,11451 760,11457 788,11473 818,11485 850,11492 L 850,11492 C 908,11507 968,11516 1028,11518 1099,11522 1183,11525 1282,11525 L 1334,11525 C 1432,11525 1517,11522 1587,11518 L 1587,11518 C 1648,11515 1708,11506 1766,11493 L 1766,11493 C 1797,11486 1827,11474 1855,11458 1864,11452 1874,11446 1883,11440 L 1883,11440 C 1905,11422 1923,11401 1937,11376 1942,11368 1946,11360 1950,11351 L 1950,11351 C 1967,11309 1978,11264 1981,11218 1986,11166 1989,11104 1989,11033 L 1989,9858 2616,9858 2616,11234 2616,11234 C 2616,11239 2616,11245 2616,11250 2616,11338 2609,11425 2595,11512 L 2595,11512 C 2584,11581 2561,11647 2526,11707 2524,11711 2521,11715 2519,11719 L 2519,11719 C 2482,11777 2431,11827 2372,11863 L 2372,11863 C 2371,11863 2370,11864 2368,11865 2297,11906 2219,11936 2138,11954 L 2138,11954 C 2027,11979 1913,11994 1800,12001 1668,12010 1515,12015 1341,12015 L 1275,12015 Z"/>
         <path fill="rgb(0,0,0)" stroke="none" d="M 5840,11989 L 4903,11989 3668,10394 3656,10394 3656,11989 3041,11989 3041,9855 3994,9855 5213,11452 5225,11452 5225,9855 5840,9855 5840,11988 5840,11989 Z "/>
         <path fill="rgb(0,0,0)" stroke="none" d="M 7689,10933 C 7797,10933 7883,10930 7947,10923 L 7947,10923 C 7999,10920 8048,10906 8093,10881 L 8093,10881 C 8114,10869 8132,10851 8144,10830 8150,10819 8155,10807 8159,10794 L 8159,10794 C 8169,10751 8174,10706 8174,10661 8174,10656 8174,10651 8174,10646 L 8174,10610 8174,10610 C 8174,10605 8174,10601 8174,10596 8174,10552 8169,10507 8159,10464 L 8159,10464 C 8155,10452 8151,10440 8144,10429 8132,10408 8115,10391 8094,10379 8094,10378 8093,10378 8093,10378 L 8093,10378 C 8047,10355 7997,10341 7946,10338 7881,10331 7796,10328 7689,10328 L 6907,10328 6907,10933 7689,10933 Z M 8805,11989 L 8186,11989 8186,11816 8186,11816 C 8186,11812 8186,11808 8186,11804 8186,11754 8183,11705 8178,11655 L 8178,11655 C 8175,11616 8164,11577 8146,11541 L 8146,11541 C 8145,11538 8143,11536 8142,11533 8126,11506 8104,11483 8078,11466 L 8078,11466 C 8077,11465 8075,11464 8073,11463 8039,11443 8001,11430 7962,11423 L 7962,11423 C 7904,11411 7845,11404 7785,11402 7715,11398 7631,11397 7534,11397 L 6907,11397 6907,11989 6286,11989 6286,9855 7940,9855 7940,9855 C 7953,9855 7966,9855 7979,9855 8110,9855 8240,9866 8369,9888 L 8369,9888 C 8444,9899 8517,9925 8583,9963 8600,9973 8617,9984 8634,9996 L 8634,9996 C 8673,10026 8705,10064 8730,10107 8746,10135 8759,10165 8768,10196 L 8768,10196 C 8793,10289 8805,10384 8805,10480 8805,10489 8805,10497 8805,10505 L 8805,10580 8805,10580 C 8805,10584 8805,10588 8805,10593 8805,10662 8798,10731 8785,10799 L 8785,10799 C 8775,10852 8756,10902 8730,10948 8727,10952 8724,10957 8722,10962 L 8722,10962 C 8692,11007 8654,11045 8608,11074 L 8608,11074 C 8604,11076 8601,11078 8597,11080 8547,11109 8493,11130 8437,11141 L 8437,11154 8437,11154 C 8500,11163 8561,11179 8621,11200 L 8621,11200 C 8634,11205 8647,11211 8659,11219 8688,11235 8714,11258 8734,11285 L 8734,11285 C 8738,11292 8743,11299 8747,11306 8769,11345 8784,11387 8790,11431 L 8790,11431 C 8800,11500 8805,11570 8805,11640 8805,11647 8805,11655 8805,11662 L 8805,11988 8805,11989 Z "/>
         <path fill="rgb(0,0,0)" stroke="none" d="M 11530,11989 L 9213,11989 9213,9855 11494,9855 11494,10327 9833,10327 9833,10690 11406,10690 11406,11135 9833,11135 9833,11503 11530,11503 11530,11988 11530,11989 Z "/>
         <path fill="rgb(0,0,0)" stroke="none" d="M 13626,11163 L 13191,10307 13176,10307 12744,11163 13626,11163 Z M 14723,11991 L 14047,11991 13851,11608 12521,11608 12329,11991 11658,11991 12803,9858 13573,9858 14723,11991 14723,11991 Z "/>
         <path fill="rgb(0,0,0)" stroke="none" d="M 17007,11991 L 14953,11991 14953,9858 15580,9858 15580,11496 17007,11496 17007,11992 17007,11991 Z "/>
         <path fill="rgb(0,0,0)" stroke="none" d="M 11067,4935 L 11067,4935 C 10993,5293 10662,6213 9607,6712 L 9184,6236 8469,6954 8469,6954 C 8018,6948 7576,6827 7186,6601 6872,6420 6598,6176 6383,5884 L 6383,5884 C 6459,5908 6537,5922 6617,5928 6734,5930 6861,5887 6861,5690 L 6861,3752 6861,3752 C 6861,3748 6861,3745 6861,3741 6861,3685 6846,3630 6818,3581 6790,3533 6750,3493 6701,3465 6653,3437 6598,3422 6542,3422 6514,3422 6486,3425 6459,3433 6128,3508 5864,4334 5864,4334 L 5864,4334 C 5864,4326 5864,4317 5864,4309 5864,3848 5985,3395 6215,2996 6362,2742 6551,2514 6773,2322 7265,1904 7747,1760 8112,1703 7751,1909 7548,2245 7548,2527 7548,2979 7821,2926 7902,2859 L 7902,5476 7902,5476 C 7909,5493 7917,5509 7926,5525 7935,5540 7944,5555 7955,5568 L 7955,5568 C 7987,5613 8027,5649 8075,5677 8133,5710 8200,5728 8268,5728 8269,5728 8270,5728 8271,5728 8545,5728 8900,5416 8900,5416 L 8900,3297 C 8900,3081 8737,2821 8575,2732 8575,2732 8876,2679 9109,2856 L 9109,2856 9109,2856 C 9152,2803 9199,2752 9248,2703 9789,2172 10300,2021 10725,1945 L 10725,1945 C 10725,1945 9951,2554 9951,3368 9951,3975 9967,5454 9967,5454 10255,5731 10681,5331 11067,4935 L 11067,4935 Z"/>
         <path fill="rgb(0,0,0)" stroke="none" d="M 8504,0 L 8504,0 C 7746,0 7002,199 6347,578 5691,957 5146,1501 4767,2157 4389,2813 4189,3557 4189,4314 4189,5072 4389,5815 4767,6471 5146,7127 5691,7672 6347,8050 7002,8429 7746,8628 8504,8628 9261,8628 10005,8429 10661,8050 11317,7672 11861,7127 12240,6471 12619,5815 12818,5072 12818,4314 12818,4314 12818,4314 12818,4314 L 12818,4314 C 12818,4314 12818,4314 12818,4314 12818,3557 12619,2813 12240,2157 11861,1501 11317,957 10661,578 10005,199 9261,0 8504,0 8504,0 8504,0 8503,0 L 8504,0 Z M 8504,8456 L 8504,8456 C 8503,8456 8503,8456 8503,8456 7776,8456 7062,8264 6432,7901 5803,7537 5280,7014 4916,6385 4553,5755 4361,5041 4361,4314 4361,3587 4553,2873 4916,2243 5280,1613 5803,1091 6432,727 7062,364 7776,172 8503,172 9230,172 9945,364 10574,727 11204,1091 11727,1613 12090,2243 12454,2873 12645,3587 12645,4314 L 12645,4314 12645,4314 C 12645,5041 12454,5755 12090,6385 11727,7014 11204,7537 10574,7901 9945,8264 9230,8456 8503,8456 L 8504,8456 Z"/>
        </g>
       </g>
      </g>
     </g>
    </g>
   </g>
  </g>
 </g>
</svg>