<?xml version="1.0" encoding="UTF-8"?>
<!DOCTYPE svg PUBLIC "-//W3C//DTD SVG 1.1//EN" "http://www.w3.org/Graphics/SVG/1.1/DTD/svg11.dtd">
<svg version="1.2" width="265.16mm" height="288.98mm" viewBox="0 0 26516 28898" preserveAspectRatio="xMidYMid" fill-rule="evenodd" stroke-width="28.222" stroke-linejoin="round" xmlns="http://www.w3.org/2000/svg" xmlns:ooo="http://xml.openoffice.org/svg/export" xmlns:xlink="http://www.w3.org/1999/xlink" xmlns:presentation="http://sun.com/xmlns/staroffice/presentation" xmlns:smil="http://www.w3.org/2001/SMIL20/" xmlns:anim="urn:oasis:names:tc:opendocument:xmlns:animation:1.0" xmlns:svg="urn:oasis:names:tc:opendocument:xmlns:svg-compatible:1.0" xml:space="preserve">
 <defs class="ClipPathGroup">
  <clipPath id="presentation_clip_path" clipPathUnits="userSpaceOnUse">
   <rect x="0" y="0" width="26516" height="28898"/>
  </clipPath>
  <clipPath id="presentation_clip_path_shrink" clipPathUnits="userSpaceOnUse">
   <rect x="26" y="28" width="26463" height="28841"/>
  </clipPath>
 </defs>
 <defs class="TextShapeIndex">
  <g ooo:slide="id1" ooo:id-list="id3 id4"/>
 </defs>
 <defs class="EmbeddedBulletChars">
  <g id="bullet-char-template-57356" transform="scale(0.00048828125,-0.00048828125)">
   <path d="M 580,1141 L 1163,571 580,0 -4,571 580,1141 Z"/>
  </g>
  <g id="bullet-char-template-57354" transform="scale(0.00048828125,-0.00048828125)">
   <path d="M 8,1128 L 1137,1128 1137,0 8,0 8,1128 Z"/>
  </g>
  <g id="bullet-char-template-10146" transform="scale(0.00048828125,-0.00048828125)">
   <path d="M 174,0 L 602,739 174,1481 1456,739 174,0 Z M 1358,739 L 309,1346 659,739 1358,739 Z"/>
  </g>
  <g id="bullet-char-template-10132" transform="scale(0.00048828125,-0.00048828125)">
   <path d="M 2015,739 L 1276,0 717,0 1260,543 174,543 174,936 1260,936 717,1481 1274,1481 2015,739 Z"/>
  </g>
  <g id="bullet-char-template-10007" transform="scale(0.00048828125,-0.00048828125)">
   <path d="M 0,-2 C -7,14 -16,27 -25,37 L 356,567 C 262,823 215,952 215,954 215,979 228,992 255,992 264,992 276,990 289,987 310,991 331,999 354,1012 L 381,999 492,748 772,1049 836,1024 860,1049 C 881,1039 901,1025 922,1006 886,937 835,863 770,784 769,783 710,716 594,584 L 774,223 C 774,196 753,168 711,139 L 727,119 C 717,90 699,76 672,76 641,76 570,178 457,381 L 164,-76 C 142,-110 111,-127 72,-127 30,-127 9,-110 8,-76 1,-67 -2,-52 -2,-32 -2,-23 -1,-13 0,-2 Z"/>
  </g>
  <g id="bullet-char-template-10004" transform="scale(0.00048828125,-0.00048828125)">
   <path d="M 285,-33 C 182,-33 111,30 74,156 52,228 41,333 41,471 41,549 55,616 82,672 116,743 169,778 240,778 293,778 328,747 346,684 L 369,508 C 377,444 397,411 428,410 L 1163,1116 C 1174,1127 1196,1133 1229,1133 1271,1133 1292,1118 1292,1087 L 1292,965 C 1292,929 1282,901 1262,881 L 442,47 C 390,-6 338,-33 285,-33 Z"/>
  </g>
  <g id="bullet-char-template-9679" transform="scale(0.00048828125,-0.00048828125)">
   <path d="M 813,0 C 632,0 489,54 383,161 276,268 223,411 223,592 223,773 276,916 383,1023 489,1130 632,1184 813,1184 992,1184 1136,1130 1245,1023 1353,916 1407,772 1407,592 1407,412 1353,268 1245,161 1136,54 992,0 813,0 Z"/>
  </g>
  <g id="bullet-char-template-8226" transform="scale(0.00048828125,-0.00048828125)">
   <path d="M 346,457 C 273,457 209,483 155,535 101,586 74,649 74,723 74,796 101,859 155,911 209,963 273,989 346,989 419,989 480,963 531,910 582,859 608,796 608,723 608,648 583,586 532,535 482,483 420,457 346,457 Z"/>
  </g>
  <g id="bullet-char-template-8211" transform="scale(0.00048828125,-0.00048828125)">
   <path d="M -4,459 L 1135,459 1135,606 -4,606 -4,459 Z"/>
  </g>
  <g id="bullet-char-template-61548" transform="scale(0.00048828125,-0.00048828125)">
   <path d="M 173,740 C 173,903 231,1043 346,1159 462,1274 601,1332 765,1332 928,1332 1067,1274 1183,1159 1299,1043 1357,903 1357,740 1357,577 1299,437 1183,322 1067,206 928,148 765,148 601,148 462,206 346,322 231,437 173,577 173,740 Z"/>
  </g>
 </defs>
 <g>
  <g id="id2" class="Master_Slide">
   <g id="bg-id2" class="Background"/>
   <g id="bo-id2" class="BackgroundObjects"/>
  </g>
 </g>
 <g class="SlideGroup">
  <g>
   <g id="container-id1">
    <g id="id1" class="Slide" clip-path="url(#presentation_clip_path)">
     <g class="Page">
      <g class="com.sun.star.drawing.CustomShape">
       <g id="id3">
        <rect class="BoundingBox" stroke="none" fill="none" x="3200" y="-2" width="20019" height="20001"/>
        <path fill="rgb(255,255,255)" stroke="none" d="M 23217,9998 C 23217,11753 22755,13477 21876,14997 20998,16518 19734,17780 18213,18657 16692,19535 14966,19997 13209,19997 11452,19997 9726,19535 8205,18657 6684,17780 5420,16518 4542,14998 3663,13477 3201,11753 3201,9998 3201,8243 3663,6519 4542,4999 5420,3478 6684,2216 8205,1339 9726,461 11452,-1 13209,-1 14966,-1 16692,461 18213,1339 19734,2216 20998,3478 21876,4998 22755,6519 23217,8243 23217,9998 L 23217,9998 Z"/>
        <path fill="none" stroke="rgb(255,255,255)" d="M 23217,9998 C 23217,11753 22755,13477 21876,14997 20998,16518 19734,17780 18213,18657 16692,19535 14966,19997 13209,19997 11452,19997 9726,19535 8205,18657 6684,17780 5420,16518 4542,14998 3663,13477 3201,11753 3201,9998 3201,8243 3663,6519 4542,4999 5420,3478 6684,2216 8205,1339 9726,461 11452,-1 13209,-1 14966,-1 16692,461 18213,1339 19734,2216 20998,3478 21876,4998 22755,6519 23217,8243 23217,9998 L 23217,9998 Z"/>
       </g>
      </g>
      <g class="Graphic">
       <g id="id4">
        <rect class="BoundingBox" stroke="none" fill="none" x="0" y="0" width="26516" height="28898"/>
        <defs>
         <clipPath id="clip_path_1" clipPathUnits="userSpaceOnUse">
          <path d="M 0,0 L 26515,0 26515,28897 0,28897 0,0 Z"/>
         </clipPath>
        </defs>
        <g clip-path="url(#clip_path_1)">
         <path fill="rgb(0,0,0)" stroke="none" d="M 24282,25193 L 24282,22686 23333,22686 23333,25934 26515,25934 26515,25193 24282,25193 Z"/>
         <path fill="rgb(0,0,0)" stroke="none" d="M 12716,28158 L 13081,28158 13425,28158 C 13442,28344 13387,28439 13235,28453 13083,28468 12931,28480 12779,28481 12147,28482 12080,28408 12118,27778 12119,27766 12119,27754 12120,27742 12144,27507 12230,27418 12466,27407 12648,27399 12830,27404 13012,27403 13202,27401 13382,27414 13429,27636 L 13894,27636 C 13960,27264 13838,27061 13480,27040 13019,27013 12555,27017 12094,27043 11784,27061 11625,27243 11607,27547 11591,27810 11592,28075 11607,28338 11622,28619 11753,28759 12028,28829 12129,28855 12232,28874 12334,28897 L 13251,28897 C 13325,28881 13399,28865 13473,28850 13671,28811 13865,28747 13905,28523 13944,28301 13943,28073 13960,27834 L 12716,27834 12716,28158 Z"/>
         <path fill="rgb(0,0,0)" stroke="none" d="M 9069,25920 L 9069,22696 8137,22696 8137,25158 C 7471,24296 6840,23479 6223,22681 L 4763,22681 4763,25924 5691,25924 5691,23513 5734,23502 C 6369,24313 7004,25125 7627,25920 L 9069,25920 Z"/>
         <path fill="rgb(0,0,0)" stroke="none" d="M 10747,23381 C 11178,23381 11598,23381 12018,23381 12077,23381 12135,23383 12194,23383 12716,23387 12771,23539 12718,24053 12701,24220 12575,24304 12425,24306 11871,24316 11315,24310 10747,24310 L 10747,23381 Z M 12767,25922 L 13698,25922 C 13698,25719 13706,25532 13696,25346 13676,24936 13616,24755 13217,24686 13196,24683 13177,24665 13128,24636 13529,24547 13673,24276 13692,23924 13702,23749 13698,23570 13675,23397 13618,22975 13464,22809 13048,22731 12842,22692 12629,22671 12419,22669 11614,22662 10809,22666 10004,22667 9941,22667 9879,22675 9805,22680 L 9805,25921 10741,25921 10741,25027 C 10954,25027 11147,25023 11340,25028 11680,25036 12022,25031 12359,25067 12636,25097 12714,25210 12738,25488 12751,25632 12757,25776 12767,25922 Z"/>
         <path fill="rgb(0,0,0)" stroke="none" d="M 15318,24615 L 17744,24615 17744,23960 15314,23960 15314,23375 17884,23375 17884,22687 14364,22687 14364,25923 17927,25923 17927,25211 15318,25211 15318,24615 Z"/>
         <path fill="rgb(0,0,0)" stroke="none" d="M 4031,22684 L 3102,22684 C 3102,23259 3104,23816 3101,24374 3100,24526 3090,24679 3073,24830 3050,25048 2913,25184 2706,25195 2279,25216 1849,25232 1424,25204 1081,25182 970,25028 966,24679 959,24079 962,23479 959,22880 959,22813 946,22746 938,22680 L 10,22680 C 10,23486 -18,24268 19,25047 45,25589 270,25802 816,25893 1609,26026 2411,26021 3204,25903 3809,25813 4015,25588 4042,24983 4074,24250 4058,23514 4061,22779 4061,22747 4041,22714 4031,22684 Z"/>
         <path fill="rgb(0,0,0)" stroke="none" d="M 19862,24662 C 20088,24218 20307,23787 20550,23309 20793,23781 21013,24209 21246,24662 L 19862,24662 Z M 19961,22676 C 19377,23753 18794,24827 18198,25926 L 19216,25926 C 19318,25731 19415,25546 19510,25365 L 21603,25365 C 21705,25557 21803,25742 21899,25924 L 22928,25924 C 22321,24813 21735,23738 21155,22676 L 19961,22676 Z"/>
         <path fill="rgb(0,0,0)" stroke="none" d="M 10616,28368 C 10601,28371 10587,28375 10572,28378 10214,27917 9856,27455 9513,27013 L 8688,27013 8688,28845 9197,28845 9197,27508 C 9214,27502 9231,27496 9249,27490 9608,27947 9968,28404 10317,28848 L 11141,28848 11141,27017 10616,27017 10616,28368 Z"/>
         <path fill="rgb(0,0,0)" stroke="none" d="M 17247,28369 C 17233,28372 17219,28376 17205,28380 16855,27928 16505,27476 16165,27038 L 15343,27038 15343,28841 15865,28841 15865,27458 C 16254,27955 16608,28407 16954,28849 L 17766,28849 17766,27043 17247,27043 17247,28369 Z"/>
         <path fill="rgb(0,0,0)" stroke="none" d="M 6832,28112 L 8214,28112 8214,27734 6832,27734 6832,27393 8290,27393 8290,27011 6306,27011 6306,28843 8327,28843 8327,28454 6832,28454 6832,28112 Z"/>
         <path fill="rgb(0,0,0)" stroke="none" d="M 18788,28111 L 20144,28111 20144,27743 18793,27743 18793,27403 20224,27403 20224,27040 18254,27040 18254,28842 20256,28842 20256,28456 18788,28456 18788,28111 Z"/>
         <path fill="rgb(0,0,0)" stroke="none" d="M 14368,28847 L 14873,28847 14873,27041 14368,27041 14368,28847 Z"/>
         <path fill="rgb(0,0,0)" stroke="none" d="M 7728,7594 C 9680,5372 11145,4564 12727,4144 12727,4144 12725,4144 12724,4145 12726,4145 12728,4144 12730,4144 12730,4144 11487,4867 11487,5961 11487,6279 11538,6497 11608,6642 11701,6836 11849,6902 11981,6903 12092,6903 12158,6857 12299,6803 L 12299,12726 C 12299,12726 12314,12822 12400,12935 12523,13098 12717,13296 13082,13298 13704,13294 14486,12592 14486,12592 L 14486,7796 C 14486,7308 14137,6719 13767,6516 13767,6516 13817,6513 13899,6513 14143,6513 14667,6541 14959,6764 15040,6670 16350,5189 18680,4733 18680,4733 18679,4733 18678,4734 18681,4734 18683,4733 18685,4733 18685,4733 17396,6250 16992,7003 16920,7007 16910,8430 16922,9853 16934,11226 16966,12598 16985,12693 16985,12693 17123,12897 17473,12899 17868,12901 18533,12645 19577,11548 19577,11548 19549,11611 19494,11722 19195,12319 18084,14322 16110,15487 L 16110,15486 C 16110,15486 16110,15486 16110,15487 L 14829,14404 14797,14376 13400,15857 C 13400,15857 13400,15857 13398,15857 L 13398,15857 C 13398,15857 10215,15588 8886,13669 8886,13669 8888,13670 8892,13671 8891,13671 8891,13670 8890,13669 8890,13669 9092,13748 9319,13752 9585,13757 9865,13659 9865,13215 L 9865,8704 C 9865,8474 9706,8216 9358,8217 9045,8218 8596,8428 7982,9058 6686,10387 6148,11650 6148,11650 6148,11650 6148,11648 6147,11645 6146,11648 6145,11650 6145,11650 6145,11650 5776,9815 7728,7594 Z M 19789,16573 C 21545,14818 22512,12483 22512,10000 22512,7517 21545,5183 19789,3427 18033,1671 15699,704 13216,704 10733,704 8399,1671 6643,3427 4887,5183 3920,7517 3920,10000 3920,12483 4887,14818 6643,16573 8399,18329 10733,19296 13216,19296 15699,19296 18033,18329 19789,16573 Z"/>
         <path fill="rgb(0,0,0)" stroke="none" d="M 22939,10000 C 22939,15371 18586,19724 13216,19724 7846,19724 3492,15371 3492,10000 3492,4630 7846,276 13216,276 18586,276 22939,4630 22939,10000 Z M 20287,17071 C 22176,15183 23216,12671 23216,10000 23216,7329 22176,4818 20287,2929 18398,1040 15887,0 13216,0 10545,0 8034,1040 6145,2929 4256,4818 3216,7329 3216,10000 3216,12671 4256,15183 6145,17071 8034,18960 10545,20001 13216,20001 15887,20001 18398,18960 20287,17071 Z"/>
        </g>
       </g>
      </g>
     </g>
    </g>
   </g>
  </g>
 </g>
</svg>