<?xml version="1.0" encoding="UTF-8"?>
<!DOCTYPE svg PUBLIC "-//W3C//DTD SVG 1.1//EN" "http://www.w3.org/Graphics/SVG/1.1/DTD/svg11.dtd">
<svg version="1.2" width="265.42mm" height="289.24mm" viewBox="0 0 26542 28924" preserveAspectRatio="xMidYMid" fill-rule="evenodd" stroke-width="28.222" stroke-linejoin="round" xmlns="http://www.w3.org/2000/svg" xmlns:ooo="http://xml.openoffice.org/svg/export" xmlns:xlink="http://www.w3.org/1999/xlink" xmlns:presentation="http://sun.com/xmlns/staroffice/presentation" xmlns:smil="http://www.w3.org/2001/SMIL20/" xmlns:anim="urn:oasis:names:tc:opendocument:xmlns:animation:1.0" xmlns:svg="urn:oasis:names:tc:opendocument:xmlns:svg-compatible:1.0" xml:space="preserve">
 <defs class="ClipPathGroup">
  <clipPath id="presentation_clip_path" clipPathUnits="userSpaceOnUse">
   <rect x="0" y="0" width="26542" height="28924"/>
  </clipPath>
  <clipPath id="presentation_clip_path_shrink" clipPathUnits="userSpaceOnUse">
   <rect x="26" y="28" width="26489" height="28867"/>
  </clipPath>
 </defs>
 <defs class="TextShapeIndex">
  <g ooo:slide="id1" ooo:id-list="id3"/>
 </defs>
 <defs class="EmbeddedBulletChars">
  <g id="bullet-char-template-57356" transform="scale(0.00048828125,-0.00048828125)">
   <path d="M 580,1141 L 1163,571 580,0 -4,571 580,1141 Z"/>
  </g>
  <g id="bullet-char-template-57354" transform="scale(0.00048828125,-0.00048828125)">
   <path d="M 8,1128 L 1137,1128 1137,0 8,0 8,1128 Z"/>
  </g>
  <g id="bullet-char-template-10146" transform="scale(0.00048828125,-0.00048828125)">
   <path d="M 174,0 L 602,739 174,1481 1456,739 174,0 Z M 1358,739 L 309,1346 659,739 1358,739 Z"/>
  </g>
  <g id="bullet-char-template-10132" transform="scale(0.00048828125,-0.00048828125)">
   <path d="M 2015,739 L 1276,0 717,0 1260,543 174,543 174,936 1260,936 717,1481 1274,1481 2015,739 Z"/>
  </g>
  <g id="bullet-char-template-10007" transform="scale(0.00048828125,-0.00048828125)">
   <path d="M 0,-2 C -7,14 -16,27 -25,37 L 356,567 C 262,823 215,952 215,954 215,979 228,992 255,992 264,992 276,990 289,987 310,991 331,999 354,1012 L 381,999 492,748 772,1049 836,1024 860,1049 C 881,1039 901,1025 922,1006 886,937 835,863 770,784 769,783 710,716 594,584 L 774,223 C 774,196 753,168 711,139 L 727,119 C 717,90 699,76 672,76 641,76 570,178 457,381 L 164,-76 C 142,-110 111,-127 72,-127 30,-127 9,-110 8,-76 1,-67 -2,-52 -2,-32 -2,-23 -1,-13 0,-2 Z"/>
  </g>
  <g id="bullet-char-template-10004" transform="scale(0.00048828125,-0.00048828125)">
   <path d="M 285,-33 C 182,-33 111,30 74,156 52,228 41,333 41,471 41,549 55,616 82,672 116,743 169,778 240,778 293,778 328,747 346,684 L 369,508 C 377,444 397,411 428,410 L 1163,1116 C 1174,1127 1196,1133 1229,1133 1271,1133 1292,1118 1292,1087 L 1292,965 C 1292,929 1282,901 1262,881 L 442,47 C 390,-6 338,-33 285,-33 Z"/>
  </g>
  <g id="bullet-char-template-9679" transform="scale(0.00048828125,-0.00048828125)">
   <path d="M 813,0 C 632,0 489,54 383,161 276,268 223,411 223,592 223,773 276,916 383,1023 489,1130 632,1184 813,1184 992,1184 1136,1130 1245,1023 1353,916 1407,772 1407,592 1407,412 1353,268 1245,161 1136,54 992,0 813,0 Z"/>
  </g>
  <g id="bullet-char-template-8226" transform="scale(0.00048828125,-0.00048828125)">
   <path d="M 346,457 C 273,457 209,483 155,535 101,586 74,649 74,723 74,796 101,859 155,911 209,963 273,989 346,989 419,989 480,963 531,910 582,859 608,796 608,723 608,648 583,586 532,535 482,483 420,457 346,457 Z"/>
  </g>
  <g id="bullet-char-template-8211" transform="scale(0.00048828125,-0.00048828125)">
   <path d="M -4,459 L 1135,459 1135,606 -4,606 -4,459 Z"/>
  </g>
  <g id="bullet-char-template-61548" transform="scale(0.00048828125,-0.00048828125)">
   <path d="M 173,740 C 173,903 231,1043 346,1159 462,1274 601,1332 765,1332 928,1332 1067,1274 1183,1159 1299,1043 1357,903 1357,740 1357,577 1299,437 1183,322 1067,206 928,148 765,148 601,148 462,206 346,322 231,437 173,577 173,740 Z"/>
  </g>
 </defs>
 <g>
  <g id="id2" class="Master_Slide">
   <g id="bg-id2" class="Background"/>
   <g id="bo-id2" class="BackgroundObjects"/>
  </g>
 </g>
 <g class="SlideGroup">
  <g>
   <g id="container-id1">
    <g id="id1" class="Slide" clip-path="url(#presentation_clip_path)">
     <g class="Page">
      <g class="Graphic">
       <g id="id3">
        <rect class="BoundingBox" stroke="none" fill="none" x="1127" y="2489" width="24289" height="24141"/>
        <defs>
         <clipPath id="clip_path_1" clipPathUnits="userSpaceOnUse">
          <path d="M 1127,2489 L 25415,2489 25415,26629 1127,26629 1127,2489 Z"/>
         </clipPath>
        </defs>
        <g clip-path="url(#clip_path_1)"/>
        <defs>
         <clipPath id="clip_path_2" clipPathUnits="userSpaceOnUse">
          <path d="M 1127,2505 L 25415,2505 25415,26629 1127,26629 1127,2505 Z"/>
         </clipPath>
        </defs>
        <g clip-path="url(#clip_path_2)">
         <path fill="rgb(255,255,255)" stroke="none" d="M 25237,14496 C 25237,16600 24683,18668 23629,20491 22576,22315 21060,23829 19236,24880 17412,25933 15342,26487 13234,26487 11127,26487 9057,25933 7233,24880 5409,23829 3893,22315 2840,20492 1786,18668 1232,16600 1232,14496 1232,12391 1786,10323 2840,8500 3893,6676 5409,5163 7233,4111 9057,3058 11127,2504 13234,2504 15342,2504 17412,3058 19236,4111 21060,5163 22576,6676 23629,8499 24683,10323 25237,12391 25237,14496 L 25237,14496 25237,14496 Z"/>
         <path fill="none" stroke="rgb(255,255,255)" stroke-width="34" stroke-linejoin="round" d="M 25237,14496 C 25237,16600 24683,18668 23629,20491 22576,22315 21060,23829 19236,24880 17412,25933 15342,26487 13234,26487 11127,26487 9057,25933 7233,24880 5409,23829 3893,22315 2840,20492 1786,18668 1232,16600 1232,14496 1232,12391 1786,10323 2840,8500 3893,6676 5409,5163 7233,4111 9057,3058 11127,2504 13234,2504 15342,2504 17412,3058 19236,4111 21060,5163 22576,6676 23629,8499 24683,10323 25237,12391 25237,14496 Z"/>
        </g>
        <defs>
         <clipPath id="clip_path_3" clipPathUnits="userSpaceOnUse">
          <path d="M 1127,2505 L 25415,2505 25415,26629 1127,26629 1127,2505 Z"/>
         </clipPath>
        </defs>
        <g clip-path="url(#clip_path_3)">
         <path fill="rgb(0,0,0)" stroke="none" d="M 26515,32719 L 26515,29712 25376,29712 25376,33608 29193,33608 29193,32719 26515,32719 26515,32719 Z"/>
         <path fill="rgb(0,0,0)" stroke="none" d="M 12643,36275 L 13081,36275 13493,36275 C 13514,36498 13448,36612 13266,36629 13083,36647 12901,36661 12719,36662 11961,36663 11880,36575 11926,35819 11927,35805 11927,35790 11928,35776 11957,35494 12060,35387 12343,35374 12562,35365 12780,35371 12998,35369 13226,35367 13442,35383 13498,35649 L 14056,35649 C 14135,35203 13989,34959 13559,34934 13007,34902 12450,34906 11897,34938 11525,34959 11335,35178 11313,35542 11294,35858 11295,36175 11313,36491 11331,36828 11488,36996 11818,37080 11939,37111 12063,37134 12185,37161 L 13285,37161 C 13374,37142 13462,37123 13551,37105 13789,37058 14021,36981 14069,36713 14116,36446 14115,36173 14135,35886 L 12643,35886 12643,36275 12643,36275 Z"/>
         <path fill="rgb(0,0,0)" stroke="none" d="M 8269,33591 L 8269,29724 7151,29724 7151,32677 C 6353,31643 5596,30663 4856,29706 L 3105,29706 3105,33596 4218,33596 4218,30704 4269,30691 C 5031,31664 5793,32637 6540,33591 L 8269,33591 8269,33591 Z"/>
         <path fill="rgb(0,0,0)" stroke="none" d="M 10282,30546 C 10799,30546 11302,30546 11806,30546 11877,30546 11946,30548 12017,30548 12643,30553 12709,30735 12646,31352 12625,31552 12474,31653 12294,31655 11630,31667 10963,31660 10282,31660 L 10282,30546 10282,30546 Z M 12704,33593 L 13821,33593 C 13821,33350 13830,33126 13818,32902 13795,32411 13723,32194 13244,32111 13219,32107 13196,32086 13137,32051 13618,31944 13791,31619 13814,31197 13826,30987 13821,30772 13793,30565 13725,30059 13540,29860 13041,29766 12794,29720 12539,29694 12287,29692 11321,29684 10356,29688 9391,29690 9315,29690 9241,29699 9152,29705 L 9152,33592 10274,33592 10274,32520 C 10530,32520 10761,32515 10993,32521 11401,32531 11811,32525 12215,32568 12547,32604 12641,32739 12670,33073 12685,33245 12692,33418 12704,33593 L 12704,33593 Z"/>
         <path fill="rgb(0,0,0)" stroke="none" d="M 15764,32026 L 18673,32026 18673,31240 15759,31240 15759,30539 18841,30539 18841,29714 14620,29714 14620,33594 18893,33594 18893,32741 15764,32741 15764,32026 15764,32026 Z"/>
         <path fill="rgb(0,0,0)" stroke="none" d="M 2227,29710 L 1113,29710 C 1113,30400 1115,31068 1112,31737 1110,31919 1098,32103 1078,32284 1050,32545 886,32708 638,32721 126,32747 -390,32766 -900,32732 -1311,32706 -1444,32521 -1449,32103 -1457,31383 -1454,30663 -1457,29945 -1457,29865 -1473,29784 -1483,29705 L -2596,29705 C -2596,30672 -2629,31610 -2585,32544 -2554,33194 -2284,33449 -1629,33558 -678,33718 284,33712 1235,33570 1961,33463 2208,33193 2240,32467 2279,31588 2259,30705 2263,29824 2263,29785 2239,29746 2227,29710 L 2227,29710 Z"/>
         <path fill="rgb(0,0,0)" stroke="none" d="M 21214,32082 C 21485,31550 21747,31033 22039,30459 22330,31026 22594,31539 22873,32082 L 21214,32082 21214,32082 Z M 21332,29700 C 20632,30992 19933,32280 19218,33598 L 20439,33598 C 20561,33364 20677,33142 20791,32925 L 23302,32925 C 23424,33156 23541,33377 23657,33596 L 24891,33596 C 24163,32263 23460,30974 22764,29700 L 21332,29700 21332,29700 Z"/>
         <path fill="rgb(0,0,0)" stroke="none" d="M 10125,36527 C 10107,36530 10090,36535 10072,36539 9642,35986 9213,35432 8802,34902 L 7812,34902 7812,37099 8423,37099 8423,35495 C 8443,35488 8463,35481 8485,35474 8916,36022 9347,36570 9766,37102 L 10754,37102 10754,34906 10125,34906 10125,36527 10125,36527 Z"/>
         <path fill="rgb(0,0,0)" stroke="none" d="M 18077,36528 C 18061,36532 18044,36536 18027,36541 17607,35999 17187,35457 16780,34932 L 15794,34932 15794,37094 16420,37094 16420,35435 C 16886,36031 17311,36574 17726,37104 L 18700,37104 18700,34938 18077,34938 18077,36528 18077,36528 Z"/>
         <path fill="rgb(0,0,0)" stroke="none" d="M 5586,36220 L 7244,36220 7244,35766 5586,35766 5586,35357 7335,35357 7335,34899 4955,34899 4955,37096 7379,37096 7379,36630 5586,36630 5586,36220 5586,36220 Z"/>
         <path fill="rgb(0,0,0)" stroke="none" d="M 19925,36219 L 21552,36219 21552,35777 19931,35777 19931,35369 21648,35369 21648,34934 19285,34934 19285,37095 21686,37095 21686,36632 19925,36632 19925,36219 19925,36219 Z"/>
         <path fill="rgb(0,0,0)" stroke="none" d="M 14624,37101 L 15230,37101 15230,34935 14624,34935 14624,37101 14624,37101 Z"/>
         <path fill="rgb(0,0,0)" stroke="none" d="M 6661,11612 C 9002,8948 10759,7978 12656,7475 12656,7475 12654,7475 12653,7476 12655,7476 12658,7475 12660,7475 12660,7475 11169,8342 11169,9654 11169,10035 11230,10297 11314,10471 11426,10703 11603,10782 11762,10784 11895,10784 11974,10729 12143,10664 L 12143,17767 C 12143,17767 12161,17882 12264,18018 12412,18213 12644,18451 13082,18453 13828,18448 14766,17607 14766,17607 L 14766,11855 C 14766,11269 14347,10563 13904,10320 13904,10320 13964,10316 14062,10316 14355,10316 14983,10350 15333,10617 15430,10504 17002,8728 19796,8181 19796,8181 19795,8181 19794,8182 19797,8182 19800,8181 19802,8181 19802,8181 18256,10001 17771,10904 17685,10908 17673,12615 17688,14322 17702,15968 17740,17614 17763,17728 17763,17728 17929,17972 18348,17975 18822,17977 19620,17670 20872,16354 20872,16354 20838,16430 20772,16563 20414,17279 19081,19681 16714,21079 L 16714,21077 C 16714,21077 16714,21077 16714,21079 L 15177,19780 15139,19746 13463,21522 C 13463,21522 13463,21522 13461,21522 L 13461,21522 C 13461,21522 9644,21200 8050,18898 8050,18898 8052,18899 8057,18901 8056,18901 8056,18899 8055,18898 8055,18898 8297,18993 8569,18998 8888,19004 9224,18886 9224,18354 L 9224,12944 C 9224,12668 9033,12358 8616,12360 8240,12361 7702,12613 6966,13368 5411,14962 4766,16477 4766,16477 4766,16477 4766,16474 4765,16471 4764,16474 4762,16477 4762,16477 4762,16477 4320,14276 6661,11612 L 6661,11612 Z M 21126,22381 C 23232,20276 24392,17476 24392,14498 24392,11520 23232,8721 21126,6615 19020,4509 16221,3349 13243,3349 10265,3349 7466,4509 5360,6615 3254,8721 2094,11520 2094,14498 2094,17476 3254,20276 5360,22381 7466,24487 10265,25647 13243,25647 16221,25647 19020,24487 21126,22381 L 21126,22381 Z"/>
         <path fill="rgb(0,0,0)" stroke="none" d="M 24904,14498 C 24904,20939 19683,26160 13243,26160 6802,26160 1581,20939 1581,14498 1581,8058 6802,2836 13243,2836 19683,2836 24904,8058 24904,14498 L 24904,14498 Z M 21723,22978 C 23989,20714 25236,17701 25236,14498 25236,11295 23989,8283 21723,6018 19458,3752 16446,2505 13243,2505 10039,2505 7028,3752 4762,6018 2497,8283 1250,11295 1250,14498 1250,17701 2497,20714 4762,22978 7028,25244 10039,26492 13243,26492 16446,26492 19458,25244 21723,22978 L 21723,22978 Z"/>
        </g>
        <g clip-path="url(#clip_path_2)"/>
        <g clip-path="url(#clip_path_1)"/>
       </g>
      </g>
     </g>
    </g>
   </g>
  </g>
 </g>
</svg>